<svg xmlns="http://www.w3.org/2000/svg" viewBox="0 0 720 620" fill="none">
  <path
    fill="#FFF8EE"
    fill-rule="evenodd"
    d="M152 118H326C402.216 118 464 179.784 464 256V310C464 386.216 402.216 448 326 448H178C163.641 448 152 436.359 152 422V246H236V364H326C356.928 364 382 338.928 382 308V258C382 227.072 356.928 202 326 202H236L152 118ZM256 218V306H342L256 218Z"
    clip-rule="evenodd"
  />
  <path d="M178 246L236 202V364H178V246Z" fill="#FFF8EE" />
  <path d="M256 218L342 306" stroke="#FFF8EE" stroke-linecap="round" stroke-width="12" />
  <text
    x="360"
    y="548"
    fill="#FFF8EE"
    font-family="Inter, Arial, sans-serif"
    font-size="84"
    font-weight="800"
    letter-spacing="1.5"
    text-anchor="middle"
  >
    DaChong
  </text>
</svg>
